Coordinates
version=1
nRows=21
nColumns=22
inDegrees=yes

Units are S.I. units (second, meters, Newtons, ...)
If the header above contains a line with 'inDegrees', this indicates whether rotational values are in degrees (yes) or radians (no).

endheader
time	pelvis_tilt	pelvis_list	pelvis_rotation	pelvis_tx	pelvis_ty	pelvis_tz	hip_flexion_r	hip_adduction_r	hip_rotation_r	knee_angle_r	ankle_angle_r	subtalar_angle_r	hip_flexion_l	hip_adduction_l	hip_rotation_l	knee_angle_l	ankle_angle_l	subtalar_angle_l	lumbar_extension	lumbar_bending	lumbar_rotation
      1.30000000	    -11.39869562	      0.69154336	    -37.90725041	     -0.89759642	      0.95007412	      0.00631928	      6.08319395	     10.50891355	      2.43038035	    -20.58015719	     27.88782824	     -8.35786431	     45.82669703	     -7.61427665	     -2.33621238	    -31.22883934	     15.51546575	      3.22709115	     -5.31202032	      6.70596398	     10.39344895
      1.31000000	    -11.45564636	      0.70633439	    -38.08426653	     -0.89151818	      0.94883703	      0.00956833	      5.70176435	     10.43500149	      2.63998928	    -20.63621081	     28.09158239	     -8.06914361	     45.78226627	     -7.63636710	     -2.23997633	    -30.65373151	     15.57838690	      3.55433087	     -5.25251752	      6.75515290	     10.44788289
      1.32000000	    -11.53942717	      0.74385781	    -38.25740823	     -0.88522680	      0.94752122	      0.01285624	      5.35423059	     10.35415282	      2.88971380	    -20.71282650	     28.31232128	     -7.86901131	     45.74781314	     -7.63322277	     -2.11595928	    -30.17156570	     15.64658493	      3.74288923	     -5.13469847	      6.81357179	     10.46539731
      1.33000000	    -11.59938508	      0.79049891	    -38.44168592	     -0.87872469	      0.94625309	      0.01618938	      5.00301522	     10.23617654	      3.13472665	    -20.83370194	     28.49061730	     -7.54963028	     45.65069182	     -7.59240122	     -1.96496519	    -29.76589063	     15.68605037	      3.95594240	     -5.02463855	      6.84918373	     10.50415144
      1.34000000	    -11.65146864	      0.83190468	    -38.62610708	     -0.87202886	      0.94500809	      0.01953942	      4.67691389	     10.10104553	      3.33393235	    -21.03841184	     28.62259362	     -7.09121066	     45.51567958	     -7.52810342	     -1.78858845	    -29.46777902	     15.65706323	      4.13148069	     -4.92106742	      6.88926093	     10.54791270
      1.35000000	    -11.71816979	      0.88709365	    -38.79824355	     -0.86510091	      0.94375024	      0.02294593	      4.36861766	      9.95664457	      3.54329206	    -21.25783506	     28.72930125	     -6.66502331	     45.38453204	     -7.44287369	     -1.62508717	    -29.29853995	     15.50858311	      4.17882928	     -4.77478309	      6.93233885	     10.56369469
      1.36000000	    -11.77759246	      0.94256473	    -38.96225745	     -0.85796974	      0.94254166	      0.02641734	      4.06800434	      9.79978036	      3.73926562	    -21.52087852	     28.79249109	     -6.18979755	     45.23819163	     -7.34199331	     -1.48332489	    -29.27068250	     15.19017937	      4.13793389	     -4.62037678	      6.96881054	     10.56447077
      1.37000000	    -11.82793739	      0.99883632	    -39.11407601	     -0.85062824	      0.94140236	      0.02994625	      3.77620664	      9.62922486	      3.91869379	    -21.82922875	     28.79503304	     -5.68122391	     45.09105480	     -7.22554843	     -1.36828087	    -29.40463696	     14.67152797	      4.00624067	     -4.45751966	      6.99758397	     10.54232425
      1.38000000	    -11.86211115	      1.05239339	    -39.24817253	     -0.84308693	      0.94037020	      0.03353198	      3.48217668	      9.44742758	      4.09504209	    -22.17605442	     28.73092136	     -5.15390675	     44.94374833	     -7.09026856	     -1.26097017	    -29.69613858	     13.95244855	      3.79888769	     -4.29556762	      7.01382587	     10.50151212
      1.39000000	    -11.86701951	      1.07787263	    -39.36684191	     -0.83536198	      0.93948786	      0.03716334	      3.17474418	      9.26350265	      4.23440948	    -22.58786751	     28.65072601	     -4.50343050	     44.79704693	     -6.95752029	     -1.17741420	    -30.17070483	     13.07849578	      3.47881481	     -4.16895820	      7.03177463	     10.46089202
      1.40000000	    -11.83028081	      1.10711367	    -39.45986773	     -0.82744116	      0.93879483	      0.04085219	      2.85648595	      9.05122967	      4.37710764	    -23.04850760	     28.47203290	     -3.86047803	     44.64419263	     -6.79298427	     -1.11277970	    -30.77539077	     12.11859110	      3.12534790	     -4.05826924	      7.01140049	     10.37679889
      1.41000000	    -11.74513151	      1.12950608	    -39.52708201	     -0.81933637	      0.93832369	      0.04459341	      2.52113072	      8.81443823	      4.51184526	    -23.56533029	     28.21743231	     -3.16933106	     44.47721377	     -6.60122925	     -1.05421854	    -31.49337149	     11.18410111	      2.73264961	     -3.97872551	      6.95603230	     10.26616795
      1.42000000	    -11.60811122	      1.14385080	    -39.56875618	     -0.81105792	      0.93809415	      0.04837600	      2.17439178	      8.55134066	      4.62956685	    -24.15207283	     27.89461809	     -2.41762229	     44.28393174	     -6.38096361	     -1.00511669	    -32.28937609	     10.37362940	      2.30853977	     -3.93523673	      6.86467900	     10.13962275
      1.43000000	    -11.41689537	      1.16384121	    -39.58852924	     -0.80261789	      0.93811839	      0.05218928	      1.83245186	      8.24978945	      4.73276324	    -24.82038875	     27.49534405	     -1.60051753	     44.04515097	     -6.11752887	     -0.96162512	    -33.10819348	      9.74233094	      1.85410540	     -3.92008626	      6.72454079	      9.99460001
      1.44000000	    -11.18173996	      1.19331154	    -39.59938036	     -0.79404018	      0.93837975	      0.05604381	      1.51616272	      7.91056071	      4.80762378	    -25.58289187	     27.01329692	     -0.70628660	     43.75060063	     -5.82074917	     -0.93857090	    -33.90978716	      9.32351858	      1.36306976	     -3.92020696	      6.53807081	      9.85534907
      1.45000000	    -10.90902846	      1.24252313	    -39.60280076	     -0.78532687	      0.93885611	      0.05989266	      1.25143201	      7.52507076	      4.84546286	    -26.46058802	     26.44901188	      0.29193660	     43.39182746	     -5.48302294	     -0.95347913	    -34.65318237	      9.12689050	      0.81764641	     -3.92574788	      6.30983623	      9.73077432
      1.46000000	    -10.61971128	      1.32549420	    -39.61337436	     -0.77651655	      0.93951643	      0.06375431	      1.07009728	      7.09654622	      4.85648690	    -27.45442295	     25.78151478	      1.38070320	     42.97033070	     -5.11207243	     -1.01020287	    -35.29769058	      9.13026863	      0.22713302	     -3.90528701	      6.03942567	      9.62021826
      1.47000000	    -10.33074184	      1.44785925	    -39.63290835	     -0.76765162	      0.94030968	      0.06759782	      1.00970332	      6.62792798	      4.82318960	    -28.59355184	     25.01137262	      2.51942419	     42.49979692	     -4.71690661	     -1.12612486	    -35.82830621	      9.29969412	     -0.39136821	     -3.84439722	      5.73713260	      9.54196125
      1.48000000	    -10.07394588	      1.60230777	    -39.67277428	     -0.75879122	      0.94119915	      0.07144024	      1.09464377	      6.14514070	      4.74475214	    -29.87232359	     24.10614348	      3.73087367	     42.00120233	     -4.32399769	     -1.27847225	    -36.24047787	      9.61860703	     -1.04377281	     -3.72261110	      5.42872805	      9.48999688
      1.49000000	     -9.86183273	      1.79446048	    -39.72565000	     -0.74996452	      0.94214661	      0.07523952	      1.35002687	      5.65040406	      4.62286377	    -31.30016189	     23.04545116	      4.92456212	     41.49791411	     -3.92948038	     -1.45787877	    -36.54331724	     10.04418311	     -1.68384054	     -3.52801704	      5.12576880	      9.46517740
      1.50000000	     -9.71112220	      1.99162104	    -39.77228705	     -0.74120413	      0.94313777	      0.07899930	      1.76158440	      5.18554019	      4.46309264	    -32.86154515	     21.82451473	      6.24877976	     40.99665222	     -3.55371198	     -1.61782538	    -36.74916030	     10.58187186	     -2.37977939	     -3.27365087	      4.86621448	      9.42344571
